<svg width="752" height="792" viewBox="0 0 752 792" fill="none" xmlns="http://www.w3.org/2000/svg">
<path d="M402.741 508.46C397.297 526.03 391.758 543.143 385.432 559.73C364.321 537.845 344.66 514.979 325.175 493.002C291.304 454.803 255.781 414.128 214.301 402.746C156.761 383.361 135.212 445.227 131.892 467.711C128.153 496.342 131.085 526.909 139.25 555.511C123.725 559.714 107.546 564.286 91.034 568.221C83.2623 533.261 82.0107 497.029 88.195 460.49C93.6558 432.23 104.203 401.341 131.428 379.266C144.472 368.337 162.905 362.169 177.472 360.249C193.037 358.577 209.638 358.577 224.534 363.088C255.473 370.741 279.563 388.785 300.56 406.512C321.407 424.726 339.916 444.102 358.118 463.071C372.86 478.766 387.761 493.967 402.741 508.46Z" fill="url(#paint0_linear_1728_59)"/>
<path d="M909.774 333.837C918.76 390.454 916.523 450.436 896.897 508.477C886.494 538.654 870.542 567.831 848.56 592.372C826.795 616.863 799.856 636.335 771.55 650.023C743.112 664.21 713.314 670.274 684.153 674.835C655.344 678.841 625.756 678.839 596.445 675.495C546.482 670.175 499.779 649.33 460.169 621.97C469.571 605.708 477.795 589.445 485.494 572.819C521.756 595.013 561.693 607.426 601.858 607.925C647.176 608.579 696.102 596.668 731.178 574.67C797.7 534.897 813.399 452.039 798.184 371.983C834.644 360.657 872.236 346.783 909.774 333.837Z" fill="url(#paint1_linear_1728_59)"/>
<path d="M909.253 327.357C909.417 328.973 909.67 330.571 909.892 332.111C910.022 332.97 910.126 333.831 910.206 334.664C872.561 347.643 834.874 361.58 798.309 372.952C796.901 365.734 795.447 358.296 793.538 350.946C783.344 307.292 763.385 265.089 738.637 230.614C726.645 213.518 665.651 138.392 615.77 241.547C595.474 283.446 577.575 331.657 560.539 380.645C543.061 429.712 524.831 479.862 504.372 530.453C498.153 545.235 491.729 560.075 484.778 574.789C477.081 591.495 468.834 607.855 459.429 624.219C448.766 643.006 436.861 661.322 422.641 679.435C422.508 679.606 422.357 679.788 422.226 679.964C403.021 703.607 378.451 727.383 344.455 741.052C336.308 744.761 326.759 746.157 318.119 748.554C309.709 749.742 302.116 750.293 294.045 750.932C277.984 751.254 261.672 750.246 245.806 746.801C213.811 739.72 183.999 723.548 161.952 701.65C139.491 680.066 123.037 654.487 111.073 628.04C102.332 608.448 95.5574 588.246 91.0521 567.587C107.569 563.658 123.741 559.085 139.253 554.878C144.286 572.148 151.06 588.849 158.968 604.153C181.169 645.918 218.129 675.897 257.644 679.638C267.491 680.987 277.614 680.183 287.653 678.916C292.774 677.679 298.188 676.62 302.644 675.514C306.201 673.402 310.066 672.886 313.591 670.563C327.909 662.612 341.324 647.574 352.91 629.152C365.717 608.619 376.227 584.804 385.531 559.574C386.863 556.041 388.169 552.493 389.423 548.93C394.16 535.583 398.502 521.912 402.756 507.961C404.041 503.747 405.583 499.698 406.821 495.231C421.598 446.697 433.656 396.119 447.917 344.869C462.668 293.771 476.985 241.571 500.322 187.841C512.608 161.091 525.886 133.445 548.929 105.532C560.37 92.5431 572.976 79.1423 591.084 67.9034C592.303 67.1417 593.571 66.3785 594.844 65.636C613.419 53.0999 639.392 46.1532 663.909 44.8685C669.111 44.8162 674.215 45.0204 679.221 45.4697C718.475 48.8752 751.604 66.0693 776.472 85.08C805.276 106.833 825.929 132.285 843.648 158.319C863.046 188.039 878.033 219.146 889.312 251.258C898.069 276.098 904.589 301.519 909.253 327.357Z" fill="url(#paint2_linear_1728_59)"/>
<defs>
<linearGradient id="paint0_linear_1728_59" x1="268.76" y1="334.571" x2="266.357" y2="591.603" gradientUnits="userSpaceOnUse">
<stop offset="0.365385" stop-color="#8E0505"/>
<stop offset="0.610577" stop-color="#F40808"/>
</linearGradient>
<linearGradient id="paint1_linear_1728_59" x1="774.514" y1="366.279" x2="793.557" y2="660.976" gradientUnits="userSpaceOnUse">
<stop offset="0.365385" stop-color="#8E0505"/>
<stop offset="0.610577" stop-color="#F40808"/>
</linearGradient>
<linearGradient id="paint2_linear_1728_59" x1="599.214" y1="53.7519" x2="607.799" y2="686.087" gradientUnits="userSpaceOnUse">
<stop offset="0.365385" stop-color="#8E0505"/>
<stop offset="0.610577" stop-color="#F40808"/>
</linearGradient>
</defs>
</svg>
